<?xml version="1.0" encoding="utf-8"?>
<svg id="master-artboard" viewBox="0 0 34.540000915527344 38.720001220703125" version="1.1" xmlns="http://www.w3.org/2000/svg" x="0px" y="0px" style="enable-background:new 0 0 336 235.2;" width="34.540000915527344px" height="38.720001220703125px"><rect id="ee-background" x="0" y="0" width="34.540000915527344" height="38.720001220703125" style="fill: white; fill-opacity: 0; pointer-events: none;"/><g transform="matrix(0.11188340187072753, 0, 0, 0.11188340187072753, -44.0634074734764, -1.3344257095108105)"><g transform="matrix(1, 0, 0, 1, 0, 0)"><path id="path-1" class="st6" d="M636.7,330H457.3c-31.2,0-56.6-25.3-56.6-56.6V94.1c0-31.2,25.3-56.6,56.6-56.6h179.4&#10;&#9;&#9;c31.2,0,56.6,25.3,56.6,56.6v179.4C693.2,304.7,667.9,330,636.7,330z" style="fill: rgb(114, 190, 200);" transform="matrix(1, 0, 0, 1, 0, 0)"/><g id="g-1" transform="matrix(1, 0, 0, 1, 0, 0)">
		<path id="path-2" class="st8" d="M488.3,236.1c31.8-19.4,132.1-80.5,137-83.2c11.5-6.4,24.3-17.6,22-24.4&#10;&#9;&#9;&#9;c-0.5-1.6-10.8-11.6-35.8,1.1c-5.9,3-32.5,18.2-48.2,28l-81.7-25.7l-12.6,7.8l57.6,40.6c-19.5,12-51.4,30.3-51.4,30.3L451,198.2&#10;&#9;&#9;&#9;c-1.3-0.7-2.9-0.6-4.2,0.2l-3.7,2.3l28.3,32.8C475.6,238.4,482.8,239.5,488.3,236.1z" style="fill: rgb(255, 255, 255);"/>
	</g><g id="g-2" transform="matrix(1, 0, 0, 1, 0, 0)">
		<defs>
			<filter id="filter-1" filterUnits="userSpaceOnUse" x="480.6" y="128.5" width="212.7" height="201.5">
				<feFlood style="flood-color:white;flood-opacity:1" result="back"/>
				<feBlend in="SourceGraphic" in2="back" mode="normal"/>
			</filter>
		</defs>
		<mask maskUnits="userSpaceOnUse" x="480.6" y="128.5" width="212.7" height="201.5" id="mask-1">
			<g id="g-3" class="st13" style="filter: url('#filter-1');">
				<defs>
					<filter id="filter-2" filterUnits="userSpaceOnUse" x="480.6" y="128.5" width="212.7" height="201.5">
						<feFlood style="flood-color:white;flood-opacity:1" result="back"/>
						<feBlend in="SourceGraphic" in2="back" mode="normal"/>
					</filter>
				</defs>
				<mask maskUnits="userSpaceOnUse" x="480.6" y="128.5" width="212.7" height="201.5" id="mask-1">
					<g id="g-4" class="st14" style="filter: url('#filter-2');">
					</g>
				</mask>
				<linearGradient id="gradient-1" gradientUnits="userSpaceOnUse" x1="685.0338" y1="312.9674" x2="515.4867" y2="128.6773">
					<stop offset="0" style="stop-color:#000000"/>
					<stop offset="9.267791e-02" style="stop-color:#060606"/>
					<stop offset="0.2179" style="stop-color:#171717"/>
					<stop offset="0.3618" style="stop-color:#343434"/>
					<stop offset="0.5195" style="stop-color:#5B5B5B"/>
					<stop offset="0.6886" style="stop-color:#8E8E8E"/>
					<stop offset="0.8643" style="stop-color:#CBCBCB"/>
					<stop offset="1" style="stop-color:#FFFFFF"/>
				</linearGradient>
				<path id="path-3" class="st15" d="M647.2,128.5c2.3,6.7-10.4,17.9-22,24.4c-4.8,2.7-105.1,63.8-137,83.2&#10;&#9;&#9;&#9;&#9;&#9;c-2.4,1.5-5.1,2.1-7.7,1.9l92,92h64.1c31.2,0,56.6-25.3,56.6-56.6v-98.9L647.2,128.5z" style="mask: url('#mask-1'); fill: url('#gradient-1');"/>
			</g>
		</mask>
		<linearGradient id="gradient-2" gradientUnits="userSpaceOnUse" x1="685.0338" y1="312.9674" x2="515.4867" y2="128.6773">
			<stop offset="0" style="stop-color:#72BEC8"/>
			<stop offset="0.2378" style="stop-color:#6EB8C2"/>
			<stop offset="0.5587" style="stop-color:#64A8B1"/>
			<stop offset="0.9256" style="stop-color:#538D95"/>
			<stop offset="1" style="stop-color:#4F878E"/>
		</linearGradient>
		<path id="path-4" class="st16" d="M647.2,128.5c2.3,6.7-10.4,17.9-22,24.4c-4.8,2.7-105.1,63.8-137,83.2&#10;&#9;&#9;&#9;c-2.4,1.5-5.1,2.1-7.7,1.9l92,92h64.1c31.2,0,56.6-25.3,56.6-56.6v-98.9L647.2,128.5z" style="fill: rgb(88, 163, 173); opacity: 1;"/>
	</g></g></g></svg>